<svg width="1600" height="154" viewBox="0 0 1600 154" fill="none" xmlns="http://www.w3.org/2000/svg">
<path fill-rule="evenodd" clip-rule="evenodd" d="M0 19.25L66.6667 28.875C133.333 38.5 266.667 57.75 400 73.7917C533.333 89.8333 666.667 102.667 800 93.0417C933.333 83.4167 1066.67 51.3333 1200 32.0833C1333.33 12.8333 1466.67 6.41667 1533.33 3.20833L1600 0V154H1533.33C1466.67 154 1333.33 154 1200 154C1066.67 154 933.333 154 800 154C666.667 154 533.333 154 400 154C266.667 154 133.333 154 66.6667 154H0V19.25Z" fill="#FFF4F4"/>
</svg>
